<?xml version="1.0" standalone="no"?>
<!DOCTYPE svg PUBLIC "-//W3C//DTD SVG 20010904//EN"
 "http://www.w3.org/TR/2001/REC-SVG-20010904/DTD/svg10.dtd">
<svg version="1.0" xmlns="http://www.w3.org/2000/svg"
 width="1414.000000pt" height="2000.000000pt" viewBox="0 0 1414.000000 2000.000000"
 preserveAspectRatio="xMidYMid meet">
<metadata>
Created by potrace 1.15, written by Peter Selinger 2001-2017
</metadata>
<g transform="translate(0.000000,2000.000000) scale(0.100000,-0.100000)"
fill="#000000" stroke="none">
<path d="M130 13370 c-47 -3 -95 -12 -108 -20 l-22 -15 2 -1890 3 -1890 30
-15 c46 -23 264 -21 327 3 48 19 102 70 118 113 12 30 21 30 68 1 20 -13 55
-31 77 -41 22 -10 56 -26 75 -35 32 -15 104 -39 185 -61 17 -5 78 -14 138 -21
270 -32 555 45 797 216 253 178 445 474 513 790 37 170 46 329 26 454 -20 129
-41 236 -49 256 -4 11 -20 54 -35 95 -65 173 -159 317 -304 460 -168 166 -334
261 -556 318 -110 28 -145 32 -271 32 -200 0 -286 -29 -340 -115 -16 -24 -19
-48 -18 -135 1 -123 21 -199 66 -254 52 -64 73 -70 258 -71 141 -1 172 -5 215
-22 28 -11 61 -25 75 -31 31 -12 136 -89 176 -129 37 -35 114 -139 114 -152 0
-5 4 -11 8 -13 11 -4 56 -112 75 -178 13 -49 31 -169 31 -210 0 -112 -39 -266
-96 -380 -55 -111 -189 -249 -288 -297 -120 -59 -156 -67 -280 -68 -124 0
-203 20 -282 71 -21 13 -42 24 -48 24 -6 0 -52 42 -103 93 -71 72 -102 111
-134 176 -24 45 -43 90 -43 100 0 9 -6 23 -12 29 -10 10 -14 296 -19 1330 -3
724 -9 1330 -13 1345 -12 41 -76 104 -121 120 -54 19 -134 25 -235 17z"/>
<path d="M9801 13351 c-55 -22 -92 -56 -114 -104 -16 -35 -17 -152 -17 -1800
0 -1688 1 -1764 19 -1802 40 -89 108 -120 266 -120 89 0 119 4 155 20 61 27
95 59 119 111 21 43 21 59 21 708 0 626 1 667 19 722 46 141 122 261 213 334
64 51 149 100 176 100 10 0 22 4 27 9 6 6 55 14 110 19 174 15 323 -18 435
-98 42 -30 56 -44 111 -108 29 -34 85 -159 100 -223 9 -39 14 -247 18 -754 7
-762 4 -728 63 -781 53 -49 86 -58 213 -58 158 0 206 19 261 106 l24 38 0 729
c0 481 -4 748 -11 783 -45 223 -83 324 -174 463 -82 124 -212 246 -335 314
-68 37 -140 71 -152 71 -8 0 -18 4 -23 8 -17 14 -125 43 -235 63 -95 17 -329
22 -405 9 -152 -27 -234 -53 -350 -111 -33 -16 -66 -29 -72 -29 -10 0 -13 129
-13 612 0 462 -3 620 -12 647 -17 49 -74 105 -126 125 -61 23 -251 21 -311 -3z"/>
<path d="M5255 13064 c-65 -33 -96 -64 -131 -127 -24 -45 -28 -64 -29 -133 0
-82 17 -135 63 -189 48 -57 149 -105 222 -105 100 0 207 63 255 151 26 48 30
64 30 139 0 67 -5 95 -22 131 -25 52 -115 139 -143 139 -11 0 -22 5 -25 10 -3
6 -43 10 -88 10 -68 0 -91 -5 -132 -26z"/>
<path d="M13270 13021 c-76 -12 -145 -60 -173 -121 -8 -17 -14 -143 -17 -395
l-5 -370 -280 -5 c-242 -4 -284 -7 -312 -22 -47 -26 -92 -78 -99 -116 -3 -18
-10 -35 -15 -38 -12 -7 -12 -231 0 -238 4 -3 11 -18 14 -33 8 -39 62 -100 105
-120 31 -15 78 -18 302 -20 146 -1 271 -2 278 -3 9 0 12 -191 12 -919 0 -1008
-3 -952 60 -1025 48 -54 105 -71 235 -70 122 0 177 17 226 71 63 67 59 3 59
1018 0 733 3 925 13 926 6 0 114 0 240 -1 l227 -1 0 295 0 296 -237 2 -238 3
-5 370 c-5 399 -6 400 -62 451 -62 57 -205 85 -328 65z"/>
<path d="M4110 12108 c-110 -23 -243 -59 -255 -70 -5 -4 -15 -8 -23 -8 -15 0
-192 -86 -206 -101 -18 -17 -31 -9 -50 31 -43 90 -110 120 -271 120 -155 0
-206 -21 -261 -105 -18 -29 -19 -61 -19 -1170 0 -1122 0 -1141 20 -1174 51
-87 142 -119 305 -107 140 10 217 63 241 163 5 21 9 315 9 653 0 573 5 707 28
765 15 35 66 140 77 154 14 20 129 134 146 146 54 37 136 77 199 98 91 30 128
38 253 52 129 14 159 25 208 75 32 32 49 109 49 222 0 158 -27 205 -143 256
-33 14 -239 14 -307 0z"/>
<path d="M7495 12110 c-11 -5 -33 -9 -49 -9 -28 -1 -46 -5 -146 -38 -91 -30
-179 -73 -279 -137 -94 -61 -251 -213 -324 -314 -63 -88 -144 -240 -171 -322
-10 -30 -21 -64 -26 -75 -10 -24 -14 -44 -41 -190 -29 -159 -19 -421 22 -560
30 -100 53 -165 80 -223 16 -35 29 -65 29 -67 0 -9 107 -175 139 -215 59 -74
132 -149 196 -200 55 -44 219 -150 232 -150 3 0 21 -7 41 -16 134 -59 205 -77
360 -95 91 -10 134 -10 225 0 61 7 126 17 142 22 115 32 146 43 193 65 29 13
54 24 56 24 2 0 32 16 66 35 35 20 65 33 68 30 7 -6 -12 -146 -26 -195 -5 -19
-17 -52 -26 -72 l-16 -38 -270 0 -270 0 0 -150 0 -150 -66 0 c-166 0 -381 76
-608 214 -97 59 -102 61 -171 61 -65 0 -75 -3 -120 -35 -57 -41 -129 -141
-146 -203 -6 -23 -9 -68 -6 -101 5 -56 8 -61 65 -115 70 -65 93 -82 182 -137
94 -58 275 -144 303 -144 9 0 18 -4 21 -9 3 -5 18 -11 33 -14 16 -3 62 -14
103 -25 140 -36 232 -47 402 -47 l168 0 0 -577 0 -578 210 0 210 0 0 628 c0
345 4 632 8 638 4 6 45 36 92 67 47 30 111 81 143 111 l57 56 0 -750 0 -750
210 0 210 0 0 541 c0 321 4 538 9 535 5 -4 147 -247 316 -541 l307 -535 199 0
199 0 0 1005 0 1005 -210 0 -210 0 0 -540 c0 -297 -3 -540 -7 -540 -5 0 -147
243 -318 540 l-310 540 -68 0 c-40 0 -66 4 -62 9 3 6 14 58 25 117 19 103 20
155 20 1263 0 1101 -1 1158 -19 1196 -44 95 -124 129 -293 124 -102 -4 -118
-7 -160 -32 -53 -31 -79 -64 -96 -123 -9 -30 -12 -217 -12 -671 0 -600 -1
-633 -20 -692 -71 -222 -226 -388 -443 -474 -43 -17 -75 -20 -184 -21 -93 -1
-136 3 -145 12 -6 6 -20 12 -29 12 -22 0 -141 62 -188 98 -54 41 -128 121
-167 180 -19 29 -34 54 -34 57 0 2 -11 28 -24 57 -59 129 -85 287 -67 405 21
131 43 204 90 298 36 71 64 108 131 175 152 153 309 210 520 191 166 -15 227
26 279 191 19 58 17 218 -3 255 -25 49 -85 88 -172 112 -48 13 -330 14 -359 1z"/>
<path d="M5238 12070 c-51 -16 -94 -49 -118 -92 l-25 -43 -3 -1085 c-2 -597 0
-1113 3 -1147 6 -53 12 -68 46 -107 53 -60 88 -70 239 -70 113 0 130 2 175 24
32 16 61 41 80 68 l30 44 0 1143 0 1143 -30 44 c-49 69 -87 82 -240 85 -71 1
-142 -2 -157 -7z"/>
<path d="M10740 9375 c-142 -29 -234 -77 -326 -169 -119 -119 -166 -254 -145
-410 18 -129 62 -217 149 -298 67 -62 141 -104 354 -202 103 -47 207 -97 230
-112 94 -58 149 -134 163 -226 14 -90 -48 -173 -148 -199 -73 -18 -194 -8
-245 21 -54 30 -99 98 -107 159 -11 75 -15 83 -38 78 -12 -3 -110 -18 -217
-33 l-195 -28 6 -80 c4 -45 16 -107 27 -138 64 -180 254 -338 462 -385 111
-25 349 -22 453 5 123 33 203 78 282 157 125 125 183 284 170 468 -11 159 -60
275 -166 390 -98 107 -159 145 -499 305 -232 110 -275 154 -219 226 29 37 47
45 132 56 88 13 156 4 303 -38 84 -25 100 -27 108 -14 9 15 126 362 126 373 0
13 -164 71 -255 90 -107 22 -305 24 -405 4z"/>
<path d="M12135 9358 c-6 -18 -465 -1982 -465 -1991 0 -4 103 -7 229 -7 l229
0 15 68 c8 37 32 147 53 245 l37 177 167 0 166 0 52 -232 c29 -128 52 -239 52
-245 0 -10 56 -13 246 -13 213 0 245 2 240 15 -3 8 -114 443 -246 967 -133
524 -245 970 -251 991 l-10 37 -255 0 c-195 0 -256 -3 -259 -12z m299 -949
c14 -53 26 -102 26 -108 0 -7 -23 -11 -60 -11 -45 0 -60 4 -60 14 0 14 35 169
47 210 8 27 16 10 47 -105z"/>
<path d="M13040 9155 l0 -215 190 0 190 0 0 -790 0 -790 215 0 215 0 0 790 0
790 145 0 145 0 0 215 0 215 -550 0 -550 0 0 -215z"/>
</g>
</svg>
